# xmcd
#
# Track frame offsets:
#	150
#	18320
#	35516
#	51868
#	68445
#	87362
#	105268
#	120135
#	133715
#	152226
#	174381
#	187079
#	199873
#	217208
#	235654
#
# Disc length: 3368 seconds
#
# Revision: 0
# Processed by: cddbd v1.5PL3 Copyright (c) Steve Scherf et al.
# Submitted via: dBpowerAMP V4.0
#
DISCID=c50d260f
DTITLE=Carpenters - Carpenters
DYEAR=1900
DGENRE=Bluegrass
TTITLE0=Yesterday Once More
TTITLE1=Superstar Leon Russell
TTITLE2=Rainy Days And Mondays
TTITLE3=Back In My Life Again,(Want You)
TTITLE4=Ticket To Ride
TTITLE5=Goodbye To Love
TTITLE6=Bless The Beasts And The Children
TTITLE7=It's Going To Take Some Time
TTITLE8=I Just Fall In Love Again
TTITLE9=This Masquerade
TTITLE10=Hurting Each Other
TTITLE11=Please Mr. Postman
TTITLE12=I Need To Be In Love
TTITLE13=Make Believe It's Your First Time
TTITLE14=All You Get From Love Is A Love Song
EXTD=
EXTT0=
EXTT1=
EXTT2=
EXTT3=
EXTT4=
EXTT5=
EXTT6=
EXTT7=
EXTT8=
EXTT9=
EXTT10=
EXTT11=
EXTT12=
EXTT13=
EXTT14=
PLAYORDER=
